<?xml version="1.0" encoding="UTF-8"?>
<svg version="1.1" xmlns="http://www.w3.org/2000/svg" width="100" height="100">
<path d="M0 0 C0.69941208 -0.00095673 1.39882416 -0.00191345 2.11943054 -0.00289917 C3.58588756 -0.00357559 5.05234767 -0.00175907 6.51879883 0.00244141 C8.77236533 0.007838 11.02573618 0.00245767 13.27929688 -0.00390625 C14.70703169 -0.00324616 16.13476639 -0.00196645 17.5625 0 C18.85969971 0.00112793 20.15689941 0.00225586 21.4934082 0.00341797 C24.44921875 0.1328125 24.44921875 0.1328125 25.44921875 1.1328125 C25.53607478 2.69453995 25.55624094 4.26010594 25.546875 5.82421875 C25.54365234 6.76845703 25.54042969 7.71269531 25.53710938 8.68554688 C25.52454102 10.17538086 25.52454102 10.17538086 25.51171875 11.6953125 C25.50720703 12.69240234 25.50269531 13.68949219 25.49804688 14.71679688 C25.48621882 17.18886099 25.46973724 19.66080768 25.44921875 22.1328125 C24.45921875 22.1328125 23.46921875 22.1328125 22.44921875 22.1328125 C21.78921875 21.1428125 21.12921875 20.1528125 20.44921875 19.1328125 C17.70592244 15.32267873 13.81951845 15.06418785 9.44921875 14.1328125 C9.44921875 13.4728125 9.44921875 12.8128125 9.44921875 12.1328125 C6.14921875 12.1328125 2.84921875 12.1328125 -0.55078125 12.1328125 C-0.55078125 12.7928125 -0.55078125 13.4528125 -0.55078125 14.1328125 C-1.87078125 14.1328125 -3.19078125 14.1328125 -4.55078125 14.1328125 C-5.31600926 17.48739405 -5.31600926 17.48739405 -5.55078125 21.1328125 C-3.47652519 23.97126816 -1.15988968 24.81699689 2.13671875 25.8203125 C2.94496094 26.07167969 3.75320312 26.32304688 4.5859375 26.58203125 C5.20082031 26.76378906 5.81570312 26.94554688 6.44921875 27.1328125 C6.44921875 27.7928125 6.44921875 28.4528125 6.44921875 29.1328125 C7.66609375 29.4421875 8.88296875 29.7515625 10.13671875 30.0703125 C10.87148438 30.25851563 11.60625 30.44671875 12.36328125 30.640625 C14.51339109 31.18837732 14.51339109 31.18837732 17.01171875 31.4453125 C20.68601136 32.48165144 23.57402926 34.65180221 26.44921875 37.1328125 C26.77921875 37.7928125 27.10921875 38.4528125 27.44921875 39.1328125 C27.79984375 39.7309375 28.15046875 40.3290625 28.51171875 40.9453125 C29.60184954 43.48895102 29.60142417 45.3931149 29.44921875 48.1328125 C28.78921875 48.1328125 28.12921875 48.1328125 27.44921875 48.1328125 C27.03671875 46.9984375 26.62421875 45.8640625 26.19921875 44.6953125 C25.62171875 43.5196875 25.04421875 42.3440625 24.44921875 41.1328125 C22.62725696 40.51889329 22.62725696 40.51889329 20.44921875 40.1328125 C17.60827376 38.83810027 14.81000072 37.4701301 12.0078125 36.09375 C9.38796298 34.80345987 9.38796298 34.80345987 6.44921875 36.1328125 C7.74859375 36.5659375 7.74859375 36.5659375 9.07421875 37.0078125 C10.18796875 37.3790625 11.30171875 37.7503125 12.44921875 38.1328125 C13.99609375 38.5659375 13.99609375 38.5659375 15.57421875 39.0078125 C18.91387021 40.31463264 20.21813856 41.32596967 22.44921875 44.1328125 C22.89652344 44.65875 23.34382813 45.1846875 23.8046875 45.7265625 C27.62985806 51.12680328 27.95019496 56.33903526 28.01171875 62.7578125 C28.03347168 63.97513062 28.03347168 63.97513062 28.05566406 65.21704102 C27.95898566 70.99357568 26.63259491 74.3270207 23.44921875 79.1328125 C22.98515625 80.2465625 22.98515625 80.2465625 22.51171875 81.3828125 C20.87468093 84.07911009 19.3409008 84.80638655 16.44921875 86.1328125 C13.0259067 86.55141284 9.643466 86.50569552 6.19921875 86.4453125 C5.29558594 86.44853516 4.39195313 86.45175781 3.4609375 86.45507812 C-11.08127917 86.33999583 -11.08127917 86.33999583 -15.21020508 82.6496582 C-15.65259521 82.14909912 -16.09498535 81.64854004 -16.55078125 81.1328125 C-17.03417969 80.6584375 -17.51757812 80.1840625 -18.015625 79.6953125 C-25.59036931 71.65844851 -27.01545775 62.87320996 -26.7890625 52.1015625 C-26.55078125 49.1328125 -26.55078125 49.1328125 -25.55078125 46.1328125 C-24.89078125 46.1328125 -24.23078125 46.1328125 -23.55078125 46.1328125 C-22.87015625 47.339375 -22.87015625 47.339375 -22.17578125 48.5703125 C-20.84645161 51.2768974 -20.84645161 51.2768974 -18.55078125 51.7578125 C-17.56078125 51.9434375 -17.56078125 51.9434375 -16.55078125 52.1328125 C-13.96243727 54.33769811 -12.67094231 56.00367997 -12.3046875 59.4453125 C-12.17709634 61.23679651 -12.05209556 63.02846688 -11.9296875 64.8203125 C-11.75072227 67.32184883 -11.75072227 67.32184883 -9.55078125 69.1328125 C-7.56690417 70.16442858 -5.56801469 71.16804868 -3.55078125 72.1328125 C-3.55078125 72.7928125 -3.55078125 73.4528125 -3.55078125 74.1328125 C-1.96668131 74.01793502 -0.38349162 73.89046742 1.19921875 73.7578125 C2.52179687 73.65339844 2.52179687 73.65339844 3.87109375 73.546875 C7.61845189 72.94502657 9.77510444 71.80692681 12.44921875 69.1328125 C14.78218126 66.30564037 14.78218126 66.30564037 14.19921875 63.0703125 C13.68989435 60.0333535 13.68989435 60.0333535 11.44921875 58.1328125 C9.46285577 57.42655011 7.46073616 56.76387679 5.44921875 56.1328125 C3.7775868 55.47869565 2.10906673 54.81627932 0.44921875 54.1328125 C0.44921875 53.4728125 0.44921875 52.8128125 0.44921875 52.1328125 C-0.22625 51.93945312 -0.90171875 51.74609375 -1.59765625 51.546875 C-2.93570313 51.15628906 -2.93570313 51.15628906 -4.30078125 50.7578125 C-5.1825 50.50257812 -6.06421875 50.24734375 -6.97265625 49.984375 C-9.31702686 49.21002228 -11.3712875 48.2791696 -13.55078125 47.1328125 C-14.25203125 46.8646875 -14.95328125 46.5965625 -15.67578125 46.3203125 C-18.25899404 44.68427773 -18.55604351 42.98439402 -19.55078125 40.1328125 C-20.08703125 39.2459375 -20.62328125 38.3590625 -21.17578125 37.4453125 C-22.55078125 35.1328125 -22.55078125 35.1328125 -22.55078125 33.1328125 C-21.56078125 33.4628125 -20.57078125 33.7928125 -19.55078125 34.1328125 C-19.13828125 35.0815625 -18.72578125 36.0303125 -18.30078125 37.0078125 C-16.01221283 41.09454183 -13.90369795 41.63180674 -9.55078125 43.1328125 C-8.58140625 43.5246875 -7.61203125 43.9165625 -6.61328125 44.3203125 C-5.93265625 44.5884375 -5.25203125 44.8565625 -4.55078125 45.1328125 C-4.55078125 45.7928125 -4.55078125 46.4528125 -4.55078125 47.1328125 C-1.91078125 47.4628125 0.72921875 47.7928125 3.44921875 48.1328125 C3.44921875 48.7928125 3.44921875 49.4528125 3.44921875 50.1328125 C4.54234375 50.2359375 5.63546875 50.3390625 6.76171875 50.4453125 C10.56628446 51.15463831 11.13818294 51.33762115 13.44921875 54.1328125 C16.33641512 58.85918379 18.11189618 63.78352221 19.44921875 69.1328125 C22.13127416 67.26703482 22.84742398 65.35442635 23.44921875 62.2578125 C23.7725601 58.73985859 23.56472709 58.28908849 21.32421875 55.2578125 C18.62509093 53.26280498 16.53777052 52.34156945 13.44921875 51.1328125 C11.33611297 50.10940117 9.23210983 49.06702118 7.13671875 48.0078125 C6.06808594 47.46898437 4.99945313 46.93015625 3.8984375 46.375 C3.09019531 45.96507812 2.28195313 45.55515625 1.44921875 45.1328125 C1.44921875 44.4728125 1.44921875 43.8128125 1.44921875 43.1328125 C0.52109375 43.0296875 -0.40703125 42.9265625 -1.36328125 42.8203125 C-4.74490119 42.09094349 -5.48968766 41.75602253 -7.55078125 39.1328125 C-8.25203125 38.3078125 -8.95328125 37.4828125 -9.67578125 36.6328125 C-11.55078125 34.1328125 -11.55078125 34.1328125 -12.55078125 31.1328125 C-14.15226294 29.58130624 -14.15226294 29.58130624 -16.05078125 28.1328125 C-19.12808602 25.71132678 -20.27196543 24.15223566 -20.82421875 20.15234375 C-21.07816627 14.63386875 -20.05669118 11.44368688 -16.83984375 6.95703125 C-15.4562056 5.16862069 -15.4562056 5.16862069 -14.76171875 2.96484375 C-13.55078125 1.1328125 -13.55078125 1.1328125 -10.94702148 0.52661133 C-7.26841159 0.10007134 -3.70343424 0.00320624 0 0 Z M-6.55078125 2.1328125 C-6.55078125 2.4628125 -6.55078125 2.7928125 -6.55078125 3.1328125 C2.35921875 3.1328125 11.26921875 3.1328125 20.44921875 3.1328125 C20.44921875 2.8028125 20.44921875 2.4728125 20.44921875 2.1328125 C11.53921875 2.1328125 2.62921875 2.1328125 -6.55078125 2.1328125 Z M21.44921875 2.1328125 C21.11921875 6.0928125 20.78921875 10.0528125 20.44921875 14.1328125 C21.43921875 14.6278125 21.43921875 14.6278125 22.44921875 15.1328125 C22.44921875 10.8428125 22.44921875 6.5528125 22.44921875 2.1328125 C22.11921875 2.1328125 21.78921875 2.1328125 21.44921875 2.1328125 Z M-15.92578125 8.5703125 C-18.63191135 12.83767151 -18.88899485 16.14416186 -18.55078125 21.1328125 C-16.96850523 25.44125174 -16.96850523 25.44125174 -13.55078125 28.1328125 C-13.4528125 27.40835938 -13.35484375 26.68390625 -13.25390625 25.9375 C-12.34746669 20.0768994 -11.63065655 15.5623914 -7.55078125 11.1328125 C1.26551404 8.62261731 11.47587718 9.9984849 20.44921875 11.1328125 C20.44921875 8.8228125 20.44921875 6.5128125 20.44921875 4.1328125 C16.09510897 4.0744404 11.74110082 4.03909077 7.38671875 4.0078125 C6.15759766 3.99105469 4.92847656 3.97429688 3.66210938 3.95703125 C-7.0513082 3.52384537 -7.0513082 3.52384537 -15.92578125 8.5703125 Z M-9.55078125 16.1328125 C-10.23226355 18.02460453 -10.23226355 18.02460453 -10.55078125 20.1328125 C-9.89078125 20.7928125 -9.23078125 21.4528125 -8.55078125 22.1328125 C-8.55078125 20.1528125 -8.55078125 18.1728125 -8.55078125 16.1328125 C-8.88078125 16.1328125 -9.21078125 16.1328125 -9.55078125 16.1328125 Z M-11.55078125 21.1328125 C-11.55078125 23.1128125 -11.55078125 25.0928125 -11.55078125 27.1328125 C-11.22078125 27.1328125 -10.89078125 27.1328125 -10.55078125 27.1328125 C-10.55078125 25.1528125 -10.55078125 23.1728125 -10.55078125 21.1328125 C-10.88078125 21.1328125 -11.21078125 21.1328125 -11.55078125 21.1328125 Z M-8.55078125 22.1328125 C-9.31521143 24.88476114 -9.70759245 26.61961221 -8.86328125 29.3828125 C-7.66649383 31.27775145 -7.66649383 31.27775145 -5.55078125 32.0078125 C-4.89078125 32.0490625 -4.23078125 32.0903125 -3.55078125 32.1328125 C-2.89078125 31.4728125 -2.23078125 30.8128125 -1.55078125 30.1328125 C-1.98390625 29.7409375 -2.41703125 29.3490625 -2.86328125 28.9453125 C-4.80952443 26.85490316 -6.09515153 24.58091702 -7.55078125 22.1328125 C-7.88078125 22.1328125 -8.21078125 22.1328125 -8.55078125 22.1328125 Z M-10.55078125 27.1328125 C-9.55078125 30.1328125 -9.55078125 30.1328125 -9.55078125 30.1328125 Z M0.57421875 32.5703125 C0.20296875 33.0859375 -0.16828125 33.6015625 -0.55078125 34.1328125 C1.75075985 34.91083437 1.75075985 34.91083437 4.44921875 35.1328125 C6.75425919 33.80127984 6.75425919 33.80127984 8.44921875 32.1328125 C4.2717928 30.89522882 4.2717928 30.89522882 0.57421875 32.5703125 Z M-6.55078125 33.1328125 C-6.55078125 34.1228125 -6.55078125 35.1128125 -6.55078125 36.1328125 C-5.56078125 35.4728125 -4.57078125 34.8128125 -3.55078125 34.1328125 C-4.54078125 33.8028125 -5.53078125 33.4728125 -6.55078125 33.1328125 Z M22.44921875 49.1328125 C22.11921875 50.1228125 21.78921875 51.1128125 21.44921875 52.1328125 C22.93421875 53.1228125 22.93421875 53.1228125 24.44921875 54.1328125 C24.11921875 52.4828125 23.78921875 50.8328125 23.44921875 49.1328125 C23.11921875 49.1328125 22.78921875 49.1328125 22.44921875 49.1328125 Z M-24.55078125 51.1328125 C-24.55078125 54.7628125 -24.55078125 58.3928125 -24.55078125 62.1328125 C-24.22078125 62.1328125 -23.89078125 62.1328125 -23.55078125 62.1328125 C-23.22078125 58.8328125 -22.89078125 55.5328125 -22.55078125 52.1328125 C-23.21078125 51.8028125 -23.87078125 51.4728125 -24.55078125 51.1328125 Z M24.44921875 54.1328125 C25.44921875 56.1328125 25.44921875 56.1328125 25.44921875 56.1328125 Z M-22.55078125 55.1328125 C-24.18241906 63.630253 -23.14246318 68.80836485 -18.55078125 76.1328125 C-17.56078125 76.1328125 -16.57078125 76.1328125 -15.55078125 76.1328125 C-14.64328125 76.7515625 -13.73578125 77.3703125 -12.80078125 78.0078125 C-5.25064551 82.94443971 3.59939557 83.30117664 12.3046875 81.5625 C16.67773039 80.33520583 19.89560709 79.01608378 23.44921875 76.1328125 C22.95421875 74.6478125 22.95421875 74.6478125 22.44921875 73.1328125 C21.76859375 73.6071875 21.08796875 74.0815625 20.38671875 74.5703125 C12.40445663 78.81619661 0.16336254 78.03408024 -8.55078125 76.1328125 C-9.86328125 74.3203125 -9.86328125 74.3203125 -10.55078125 72.1328125 C-11.03546875 71.54628906 -11.52015625 70.95976563 -12.01953125 70.35546875 C-13.86305001 67.67954484 -14.24364328 65.57893478 -14.73828125 62.3828125 C-14.89683594 61.39796875 -15.05539063 60.413125 -15.21875 59.3984375 C-15.32832031 58.65078125 -15.43789063 57.903125 -15.55078125 57.1328125 C-16.54078125 57.1328125 -17.53078125 57.1328125 -18.55078125 57.1328125 C-20.73828125 56.1328125 -20.73828125 56.1328125 -22.55078125 55.1328125 Z M24.44921875 66.1328125 C24.11921875 67.1228125 23.78921875 68.1128125 23.44921875 69.1328125 C24.10921875 69.7928125 24.76921875 70.4528125 25.44921875 71.1328125 C25.44921875 69.4828125 25.44921875 67.8328125 25.44921875 66.1328125 C25.11921875 66.1328125 24.78921875 66.1328125 24.44921875 66.1328125 Z M16.44921875 67.1328125 C17.44921875 70.1328125 17.44921875 70.1328125 17.44921875 70.1328125 Z M21.44921875 70.1328125 C22.44921875 72.1328125 22.44921875 72.1328125 22.44921875 72.1328125 Z M23.44921875 71.1328125 C24.44921875 74.1328125 24.44921875 74.1328125 24.44921875 74.1328125 Z M1.44921875 75.1328125 C5.44921875 76.1328125 5.44921875 76.1328125 5.44921875 76.1328125 Z M-2.55078125 83.1328125 C-2.55078125 83.4628125 -2.55078125 83.7928125 -2.55078125 84.1328125 C1.40921875 84.1328125 5.36921875 84.1328125 9.44921875 84.1328125 C9.44921875 83.8028125 9.44921875 83.4728125 9.44921875 83.1328125 C5.48921875 83.1328125 1.52921875 83.1328125 -2.55078125 83.1328125 Z " fill="#B9A76E" transform="translate(48.55078125,6.8671875)"/>
<path d="M0 0 C0.99 0.33 1.98 0.66 3 1 C3.4125 1.94875 3.825 2.8975 4.25 3.875 C6.53856842 7.96172933 8.6470833 8.49899424 13 10 C13.969375 10.391875 14.93875 10.78375 15.9375 11.1875 C16.618125 11.455625 17.29875 11.72375 18 12 C18 12.66 18 13.32 18 14 C20.64 14.33 23.28 14.66 26 15 C26 15.66 26 16.32 26 17 C27.093125 17.103125 28.18625 17.20625 29.3125 17.3125 C33.11706571 18.02182581 33.68896419 18.20480865 36 21 C38.88719637 25.72637129 40.66267743 30.65070971 42 36 C44.68205541 34.13422232 45.39820523 32.22161385 46 29.125 C46.32334135 25.60704609 46.11550834 25.15627599 43.875 22.125 C41.255159 20.18859578 39.09134603 18.9715659 36 18 C36 17.01 36 16.02 36 15 C35.01 14.67 34.02 14.34 33 14 C33.66 12.35 34.32 10.7 35 9 C37.62901288 10.52206009 39.84365964 11.84365964 42 14 C42.99 14.66 43.98 15.32 45 16 C45.6875 18.125 45.6875 18.125 46 20 C47.32 20 48.64 20 50 20 C50.10867663 23.02181414 50.18762754 26.03966327 50.25 29.0625 C50.30027344 30.33383789 50.30027344 30.33383789 50.3515625 31.63085938 C50.44508317 37.68632286 49.39362934 40.98417691 46 46 C45.690625 46.7425 45.38125 47.485 45.0625 48.25 C43.42546218 50.94629759 41.89168205 51.67357405 39 53 C35.57668795 53.41860034 32.19424725 53.37288302 28.75 53.3125 C27.84636719 53.31572266 26.94273438 53.31894531 26.01171875 53.32226562 C11.46950208 53.20718333 11.46950208 53.20718333 7.34057617 49.5168457 C6.89818604 49.01628662 6.4557959 48.51572754 6 48 C5.51660156 47.525625 5.03320312 47.05125 4.53515625 46.5625 C-3.03958806 38.52563601 -4.4646765 29.74039746 -4.23828125 18.96875 C-4 16 -4 16 -3 13 C-2.34 13 -1.68 13 -1 13 C-0.319375 14.2065625 -0.319375 14.2065625 0.375 15.4375 C1.70432964 18.1440849 1.70432964 18.1440849 4 18.625 C4.66 18.74875 5.32 18.8725 6 19 C8.58834398 21.20488561 9.87983894 22.87086747 10.24609375 26.3125 C10.37368491 28.10398401 10.49868569 29.89565438 10.62109375 31.6875 C10.80005898 34.18903633 10.80005898 34.18903633 13 36 C14.98387708 37.03161608 16.98276656 38.03523618 19 39 C19 39.66 19 40.32 19 41 C20.58409994 40.88512252 22.16728963 40.75765492 23.75 40.625 C25.07257812 40.52058594 25.07257812 40.52058594 26.421875 40.4140625 C30.16923314 39.81221407 32.32588569 38.67411431 35 36 C37.33296251 33.17282787 37.33296251 33.17282787 36.75 29.9375 C36.2406756 26.900541 36.2406756 26.900541 34 25 C32.01363702 24.29373761 30.01151741 23.63106429 28 23 C26.32836805 22.34588315 24.65984798 21.68346682 23 21 C23 20.34 23 19.68 23 19 C22.32453125 18.80664062 21.6490625 18.61328125 20.953125 18.4140625 C19.61507812 18.02347656 19.61507812 18.02347656 18.25 17.625 C17.36828125 17.36976562 16.4865625 17.11453125 15.578125 16.8515625 C13.23375439 16.07720978 11.17949375 15.1463571 9 14 C8.29875 13.731875 7.5975 13.46375 6.875 13.1875 C4.29178721 11.55146523 3.99473774 9.85158152 3 7 C2.46375 6.113125 1.9275 5.22625 1.375 4.3125 C0 2 0 2 0 0 Z M-2 18 C-2 21.63 -2 25.26 -2 29 C-1.67 29 -1.34 29 -1 29 C-0.67 25.7 -0.34 22.4 0 19 C-0.66 18.67 -1.32 18.34 -2 18 Z M0 22 C-1.63163781 30.4974405 -0.59168193 35.67555235 4 43 C4.99 43 5.98 43 7 43 C7.9075 43.61875 8.815 44.2375 9.75 44.875 C17.30013574 49.81162721 26.15017682 50.16836414 34.85546875 48.4296875 C39.22851164 47.20239333 42.44638834 45.88327128 46 43 C45.505 41.515 45.505 41.515 45 40 C44.319375 40.474375 43.63875 40.94875 42.9375 41.4375 C34.95523788 45.68338411 22.71414379 44.90126774 14 43 C12.6875 41.1875 12.6875 41.1875 12 39 C11.5153125 38.41347656 11.030625 37.82695313 10.53125 37.22265625 C8.68773124 34.54673234 8.30713797 32.44612228 7.8125 29.25 C7.65394531 28.26515625 7.49539062 27.2803125 7.33203125 26.265625 C7.22246094 25.51796875 7.11289062 24.7703125 7 24 C6.01 24 5.02 24 4 24 C1.8125 23 1.8125 23 0 22 Z M47 33 C46.67 33.99 46.34 34.98 46 36 C46.66 36.66 47.32 37.32 48 38 C48 36.35 48 34.7 48 33 C47.67 33 47.34 33 47 33 Z M39 34 C40 37 40 37 40 37 Z M44 37 C45 39 45 39 45 39 Z M46 38 C47 41 47 41 47 41 Z M24 42 C28 43 28 43 28 43 Z M20 50 C20 50.33 20 50.66 20 51 C23.96 51 27.92 51 32 51 C32 50.67 32 50.34 32 50 C28.04 50 24.08 50 20 50 Z " fill="#B47155" transform="translate(26,40)"/>
<path d="M0 0 C2.62901288 1.52206009 4.84365964 2.84365964 7 5 C7.99 5.66 8.98 6.32 10 7 C10.6875 9.125 10.6875 9.125 11 11 C12.32 11 13.64 11 15 11 C15.10867663 14.02181414 15.18762754 17.03966327 15.25 20.0625 C15.30027344 21.33383789 15.30027344 21.33383789 15.3515625 22.63085938 C15.44508317 28.68632286 14.39362934 31.98417691 11 37 C10.690625 37.7425 10.38125 38.485 10.0625 39.25 C8.42546218 41.94629759 6.89168205 42.67357405 4 44 C0.57668795 44.41860034 -2.80575275 44.37288302 -6.25 44.3125 C-7.15363281 44.31572266 -8.05726562 44.31894531 -8.98828125 44.32226562 C-23.51438885 44.20731082 -23.51438885 44.20731082 -27.65283203 40.53222656 C-28.09739746 40.0265918 -28.54196289 39.52095703 -29 39 C-29.51820312 38.44441406 -30.03640625 37.88882813 -30.5703125 37.31640625 C-31.08335938 36.73761719 -31.59640625 36.15882812 -32.125 35.5625 C-32.90230469 34.69818359 -32.90230469 34.69818359 -33.6953125 33.81640625 C-35.09463833 31.86824304 -35.57778903 30.34275597 -36 28 C-32.89953981 29.03348673 -32.18011641 29.74831411 -30 32 C-21.53410138 38.20219095 -13.41136926 39.88523063 -3 39 C1.82476931 37.98940643 5.88745858 36.74169428 10 34 C9.67 33.34 9.34 32.68 9 32 C8.443125 32.515625 7.88625 33.03125 7.3125 33.5625 C5 35 5 35 2.25 34.6875 C1.5075 34.460625 0.765 34.23375 0 34 C1.52708963 30.56404834 3.59927045 27.88087546 6 25 C6.66 25.66 7.32 26.32 8 27 C10.12593655 23.51346406 11.00748711 21.44173922 10.9375 17.3125 C10.28418559 14.00873053 10.28418559 14.00873053 8.25 12.1875 C5.88231608 10.93788904 3.51762434 9.90914212 1 9 C1 8.01 1 7.02 1 6 C0.01 5.67 -0.98 5.34 -2 5 C-1.34 3.35 -0.68 1.7 0 0 Z M12 24 C11.67 24.99 11.34 25.98 11 27 C11.66 27.66 12.32 28.32 13 29 C13 27.35 13 25.7 13 24 C12.67 24 12.34 24 12 24 Z M9 28 C10 30 10 30 10 30 Z M11 29 C12 32 12 32 12 32 Z M-15 41 C-15 41.33 -15 41.66 -15 42 C-11.04 42 -7.08 42 -3 42 C-3 41.67 -3 41.34 -3 41 C-6.96 41 -10.92 41 -15 41 Z " fill="#BE7A54" transform="translate(61,49)"/>
<path d="M0 0 C0.66 0.66 1.32 1.32 2 2 C1.649375 2.680625 1.29875 3.36125 0.9375 4.0625 C-0.52630621 8.64909279 0.50626908 12.51880723 2 17 C3.65 17.33 5.3 17.66 7 18 C7 18.66 7 19.32 7 20 C7.58007812 20.19335938 8.16015625 20.38671875 8.7578125 20.5859375 C13.171875 22.05729167 17.5859375 23.52864583 22 25 C23.546875 25.433125 23.546875 25.433125 25.125 25.875 C30.41812841 27.94622416 33.26319102 32.13456182 36 37 C35.75 39.375 35.75 39.375 35 41 C34.34 40.01 33.68 39.02 33 38 C31.0624994 35.81222534 31.0624994 35.81222534 29 34 C28.34 34 27.68 34 27 34 C26.67 33.01 26.34 32.02 26 31 C23.98491642 30.26676204 23.98491642 30.26676204 22 30 C21.34 31.65 20.68 33.3 20 35 C20.99 35.33 21.98 35.66 23 36 C22.01 36.495 22.01 36.495 21 37 C18.6171875 36.00390625 18.6171875 36.00390625 15.875 34.5625 C14.96492188 34.08941406 14.05484375 33.61632813 13.1171875 33.12890625 C12.41851562 32.75636719 11.71984375 32.38382813 11 32 C11 31.34 11 30.68 11 30 C10.071875 29.896875 9.14375 29.79375 8.1875 29.6875 C4.80588006 28.95813099 4.06109359 28.62321003 2 26 C1.29875 25.175 0.5975 24.35 -0.125 23.5 C-2 21 -2 21 -3 18 C-4.60148169 16.44849374 -4.60148169 16.44849374 -6.5 15 C-9.14505064 12.91864868 -9.89973703 12.30078891 -11 9 C-11.03954234 6.66700175 -11.04401732 4.33291811 -11 2 C-10.34 1.67 -9.68 1.34 -9 1 C-8.87882812 1.68707031 -8.75765625 2.37414062 -8.6328125 3.08203125 C-8.38144531 4.43361328 -8.38144531 4.43361328 -8.125 5.8125 C-7.96257813 6.70582031 -7.80015625 7.59914063 -7.6328125 8.51953125 C-7.08811551 11.22727846 -7.08811551 11.22727846 -5 14 C-4.89042969 13.32453125 -4.78085937 12.6490625 -4.66796875 11.953125 C-4.50941406 11.06109375 -4.35085937 10.1690625 -4.1875 9.25 C-4.03667969 8.36828125 -3.88585938 7.4865625 -3.73046875 6.578125 C-2.94585752 3.8089089 -1.85404641 2.1740599 0 0 Z M-2 8 C-2 9.98 -2 11.96 -2 14 C-1.67 14 -1.34 14 -1 14 C-1 12.02 -1 10.04 -1 8 C-1.33 8 -1.66 8 -2 8 Z M-1 14 C0 17 0 17 0 17 Z M3 20 C3 20.99 3 21.98 3 23 C3.99 22.34 4.98 21.68 6 21 C5.01 20.67 4.02 20.34 3 20 Z " fill="#BB9969" transform="translate(39,20)"/>
<path d="M0 0 C1.05904289 0.00212242 1.05904289 0.00212242 2.13948059 0.00428772 C4.39120751 0.00987861 6.64283446 0.02242937 8.89453125 0.03515625 C10.4225246 0.04017243 11.95051952 0.04473513 13.47851562 0.04882812 C17.2213926 0.05984505 20.96419498 0.07710338 24.70703125 0.09765625 C26.01860641 2.72080657 25.60353113 4.32799061 25.26953125 7.22265625 C25.16769531 8.13273438 25.06585938 9.0428125 24.9609375 9.98046875 C24.87714844 10.67914063 24.79335937 11.3778125 24.70703125 12.09765625 C23.38703125 12.42765625 22.06703125 12.75765625 20.70703125 13.09765625 C20.70703125 10.12765625 20.70703125 7.15765625 20.70703125 4.09765625 C16.35236958 4.20812823 11.99852626 4.33861844 7.64453125 4.47265625 C6.41541016 4.50359375 5.18628906 4.53453125 3.91992188 4.56640625 C-6.43810859 4.42534397 -6.43810859 4.42534397 -15.16796875 9.03515625 C-16.4215234 11.1888801 -16.4215234 11.1888801 -17.29296875 14.09765625 C-18.28296875 14.42765625 -19.27296875 14.75765625 -20.29296875 15.09765625 C-18.94974541 10.09109651 -16.82347424 5.90054496 -13.29296875 2.09765625 C-8.63682753 0.54560918 -4.88049793 -0.03680129 0 0 Z M-6.29296875 2.09765625 C-6.29296875 2.42765625 -6.29296875 2.75765625 -6.29296875 3.09765625 C2.61703125 3.09765625 11.52703125 3.09765625 20.70703125 3.09765625 C20.70703125 2.76765625 20.70703125 2.43765625 20.70703125 2.09765625 C11.79703125 2.09765625 2.88703125 2.09765625 -6.29296875 2.09765625 Z " fill="#C2B872" transform="translate(48.29296875,6.90234375)"/>
<path d="M0 0 C3.10046019 1.03348673 3.81988359 1.74831411 6 4 C14.45500254 10.19420838 22.59765404 11.90741071 33 11 C36.4287144 10.22663939 39.70675256 9.22403887 43 8 C42.835 8.598125 42.67 9.19625 42.5 9.8125 C41.8885876 12.11344336 41.8885876 12.11344336 42 15 C31.5668906 16.69368659 20.15056379 17.26882563 10 14 C8.46484375 12.640625 8.46484375 12.640625 7 11 C6.48179688 10.44441406 5.96359375 9.88882813 5.4296875 9.31640625 C4.91664062 8.73761719 4.40359375 8.15882812 3.875 7.5625 C3.35679688 6.98628906 2.83859375 6.41007812 2.3046875 5.81640625 C0.90536167 3.86824304 0.42221097 2.34275597 0 0 Z M21 13 C21 13.33 21 13.66 21 14 C24.96 14 28.92 14 33 14 C33 13.67 33 13.34 33 13 C29.04 13 25.08 13 21 13 Z " fill="#B05E4B" transform="translate(25,77)"/>
<path d="M0 0 C2.98704569 0.49784095 4.39324263 1.26216175 7 3 C8.5737452 3.32190243 10.15947079 3.58775131 11.75 3.8125 C16.99171304 4.77181791 19.95815794 6.56013442 24 10 C24.33 10.66 24.66 11.32 25 12 C25.350625 12.598125 25.70125 13.19625 26.0625 13.8125 C27.15263079 16.35613852 27.15220542 18.2603024 27 21 C26.34 21 25.68 21 25 21 C24.5875 19.865625 24.175 18.73125 23.75 17.5625 C23.1725 16.386875 22.595 15.21125 22 14 C20.17311927 13.38230194 20.17311927 13.38230194 18 13 C15.22398848 11.73817658 12.49105409 10.40242294 9.75390625 9.05859375 C6.9380328 7.97617998 4.98413069 7.78878204 2 8 C2.33 7.01 2.66 6.02 3 5 C1.02 5.33 -0.96 5.66 -3 6 C-1.125 1.125 -1.125 1.125 0 0 Z " fill="#AF9452" transform="translate(51,34)"/>
<path d="M0 0 C0.99 0.33 1.98 0.66 3 1 C3.4125 1.94875 3.825 2.8975 4.25 3.875 C6.53856842 7.96172933 8.6470833 8.49899424 13 10 C13.969375 10.391875 14.93875 10.78375 15.9375 11.1875 C16.618125 11.455625 17.29875 11.72375 18 12 C18 12.66 18 13.32 18 14 C20.64 14.33 23.28 14.66 26 15 C26 15.66 26 16.32 26 17 C26.99 17.33 27.98 17.66 29 18 C28.67 18.99 28.34 19.98 28 21 C26.35 21 24.7 21 23 21 C23 20.34 23 19.68 23 19 C22.32453125 18.80664062 21.6490625 18.61328125 20.953125 18.4140625 C19.61507812 18.02347656 19.61507812 18.02347656 18.25 17.625 C17.36828125 17.36976562 16.4865625 17.11453125 15.578125 16.8515625 C13.23375439 16.07720978 11.17949375 15.1463571 9 14 C8.29875 13.731875 7.5975 13.46375 6.875 13.1875 C4.29178721 11.55146523 3.99473774 9.85158152 3 7 C2.46375 6.113125 1.9275 5.22625 1.375 4.3125 C0 2 0 2 0 0 Z " fill="#BC8E65" transform="translate(26,40)"/>
<path d="M0 0 C3.94176916 1.83650609 7.28128905 4.29642196 10.78125 6.85546875 C13.47352525 8.24426566 14.19810532 7.8405684 17 7 C19.50221782 7.72727063 21.63811773 8.86447968 24 10 C23.34 11.98 22.68 13.96 22 16 C22.99 16.33 23.98 16.66 25 17 C24.34 17.33 23.68 17.66 23 18 C20.6171875 17.00390625 20.6171875 17.00390625 17.875 15.5625 C16.96492188 15.08941406 16.05484375 14.61632813 15.1171875 14.12890625 C14.41851562 13.75636719 13.71984375 13.38382813 13 13 C13 12.34 13 11.68 13 11 C12.071875 10.896875 11.14375 10.79375 10.1875 10.6875 C6.80588006 9.95813099 6.06109359 9.62321003 4 7 C3.278125 6.154375 2.55625 5.30875 1.8125 4.4375 C0 2 0 2 0 0 Z " fill="#C79258" transform="translate(37,39)"/>
<path d="M0 0 C1.33058004 0.30398021 2.66414561 0.5951067 4 0.875 C7.94338676 1.84196074 10.81711432 3.42337826 14 6 C15.25 8.0625 15.25 8.0625 16 10 C16.99 11.485 16.99 11.485 18 13 C17.625 15.1875 17.625 15.1875 17 17 C16.34 16.01 15.68 15.02 15 14 C13.0624994 11.81222534 13.0624994 11.81222534 11 10 C10.34 10 9.68 10 9 10 C8.67 9.01 8.34 8.02 8 7 C4.99152582 5.77479736 4.99152582 5.77479736 2 5 C2 4.34 2 3.68 2 3 C-1.34252724 2.92572162 -3.8035914 2.93453047 -7 4 C-7 3.34 -7 2.68 -7 2 C-8.32 1.34 -9.64 0.68 -11 0 C-6.56811031 -2.34629454 -4.57311434 -1.79337817 0 0 Z " fill="#BD8563" transform="translate(57,44)"/>
<path d="M0 0 C1.32 0.33 2.64 0.66 4 1 C3.89300781 1.68707031 3.78601562 2.37414062 3.67578125 3.08203125 C3.55589844 3.98308594 3.43601563 4.88414063 3.3125 5.8125 C3.18488281 6.70582031 3.05726562 7.59914063 2.92578125 8.51953125 C2.76648366 11.02760502 2.76648366 11.02760502 4.28125 12.75 C6.670262 14.48746327 9.18172578 15.18583189 12 16 C11.34 16.33 10.68 16.66 10 17 C9.27840576 18.64363134 8.60648579 20.31050386 8 22 C5.47073243 20.73536621 4.61081761 19.31957736 3 17 C2.47664063 16.25878906 1.95328125 15.51757812 1.4140625 14.75390625 C-0.26919323 11.47574246 -0.30811852 9.34626175 -0.1875 5.6875 C-0.16042969 4.61886719 -0.13335937 3.55023437 -0.10546875 2.44921875 C-0.07066406 1.64097656 -0.03585938 0.83273438 0 0 Z " fill="#C4AA6D" transform="translate(40,17)"/>
<path d="M0 0 C0.66 0.33 1.32 0.66 2 1 C1.67 1.99 1.34 2.98 1 4 C1 4.99 1 5.98 1 7 C-3.72314313 7.77112541 -8.21521178 8.09764874 -13 8 C-12.67 7.34 -12.34 6.68 -12 6 C-17.94 5.01 -17.94 5.01 -24 4 C-20.35265477 3.08816369 -17.94116505 2.98156094 -14.25 3.125 C-8.71694219 3.19940542 -5.04389002 2.14832353 0 0 Z " fill="#AC553E" transform="translate(66,85)"/>
<path d="M0 0 C5.62644415 2.07290048 7.644003 4.5720282 10.24609375 9.82421875 C11.42357938 13.22245448 10.86166214 15.55335144 10 19 C9.34 19 8.68 19 8 19 C7.92652344 18.06027344 7.92652344 18.06027344 7.8515625 17.1015625 C7.77679688 16.28429687 7.70203125 15.46703125 7.625 14.625 C7.55539063 13.81289062 7.48578125 13.00078125 7.4140625 12.1640625 C7.17107412 9.79665809 7.17107412 9.79665809 5 8 C4.01 7.67 3.02 7.34 2 7 C-1 6 -1 6 -3 4 C-2.01 4 -1.02 4 0 4 C0 2.68 0 1.36 0 0 Z " fill="#C37245" transform="translate(55,57)"/>
<path d="M0 0 C3.96519457 1.32173152 6.16075605 2.96494613 9 6 C9.66 6.33 10.32 6.66 11 7 C11.4140625 9.06640625 11.4140625 9.06640625 11.625 11.5625 C11.69976562 12.38878906 11.77453125 13.21507812 11.8515625 14.06640625 C11.90054688 14.70449219 11.94953125 15.34257813 12 16 C11.34 16 10.68 16 10 16 C9.5875 14.865625 9.175 13.73125 8.75 12.5625 C7.45566247 8.9415387 7.45566247 8.9415387 5.0625 8.1875 C4.381875 8.125625 3.70125 8.06375 3 8 C1.6520257 7.36345658 0.31403276 6.70394612 -1 6 C-0.67 4.02 -0.34 2.04 0 0 Z " fill="#C39A5B" transform="translate(66,39)"/>
<path d="M0 0 C0.66 0.33 1.32 0.66 2 1 C2.34375 3.21484375 2.34375 3.21484375 2.5 5.9375 C2.59786386 9.94706229 2.59786386 9.94706229 5 13 C5.515625 13.45375 6.03125 13.9075 6.5625 14.375 C8.20273182 16.2291751 8.58422558 17.58850835 9 20 C7.68 20 6.36 20 5 20 C4.731875 19.4225 4.46375 18.845 4.1875 18.25 C3.09289533 15.97589954 3.09289533 15.97589954 1.47265625 14.21484375 C-0.33954093 11.48933764 -0.52467298 9.55807569 -0.75 6.3125 C-0.82734375 5.33925781 -0.9046875 4.36601563 -0.984375 3.36328125 C-0.98953125 2.58339844 -0.9946875 1.80351563 -1 1 C-0.67 0.67 -0.34 0.34 0 0 Z " fill="#BF6958" transform="translate(34,63)"/>
<path d="M0 0 C1.1157177 3.34715311 1.1807689 4.71071522 0 8 C-2.375 9.25 -2.375 9.25 -5 10 C-5.99 10.33 -6.98 10.66 -8 11 C-8.99 10.67 -9.98 10.34 -11 10 C-9.47291037 6.56404834 -7.40072955 3.88087546 -5 1 C-4.34 1.66 -3.68 2.32 -3 3 C-2.01 2.01 -1.02 1.02 0 0 Z M-2 4 C-1 6 -1 6 -1 6 Z " fill="#C3643E" transform="translate(72,73)"/>
<path d="M0 0 C3 1 3 1 6 3 C8.62531524 3.16713569 8.62531524 3.16713569 11 3 C11 3.66 11 4.32 11 5 C11.99 5.33 12.98 5.66 14 6 C13.67 6.99 13.34 7.98 13 9 C11.35 9 9.7 9 8 9 C8 8.34 8 7.68 8 7 C7.30132812 6.79503906 6.60265625 6.59007812 5.8828125 6.37890625 C4.97273438 6.10949219 4.06265625 5.84007812 3.125 5.5625 C2.22007813 5.29566406 1.31515625 5.02882813 0.3828125 4.75390625 C-2 4 -2 4 -4 3 C-2.1875 1.4375 -2.1875 1.4375 0 0 Z " fill="#B5825E" transform="translate(41,52)"/>
<path d="M0 0 C2.95662966 0.22743305 4.55033688 0.61235938 6.8125 2.5625 C7.204375 3.036875 7.59625 3.51125 8 4 C7.67 4.66 7.34 5.32 7 6 C6.34 6 5.68 6 5 6 C5 7.98 5 9.96 5 12 C4.67 12 4.34 12 4 12 C3.71125 11.030625 3.4225 10.06125 3.125 9.0625 C2.35785318 5.89335797 2.35785318 5.89335797 0 5 C-0.33 6.98 -0.66 8.96 -1 11 C-1.33 11 -1.66 11 -2 11 C-2.05399736 9.54207116 -2.09279177 8.08357288 -2.125 6.625 C-2.15980469 5.40683594 -2.15980469 5.40683594 -2.1953125 4.1640625 C-2 2 -2 2 0 0 Z " fill="#CA784E" transform="translate(27,58)"/>
<path d="M0 0 C0.66 0.33 1.32 0.66 2 1 C1.72679027 7.14721899 0.8968092 11.00721321 -3 16 C-3.33 16.66 -3.66 17.32 -4 18 C-5.32 17.34 -6.64 16.68 -8 16 C-7.59007813 15.59910156 -7.18015625 15.19820312 -6.7578125 14.78515625 C-2.38421215 10.17090324 -0.82479927 6.27131862 0 0 Z " fill="#B66A50" transform="translate(74,72)"/>
<path d="M0 0 C0.33 0 0.66 0 1 0 C1.10957031 0.67546875 1.21914063 1.3509375 1.33203125 2.046875 C1.49058594 2.93890625 1.64914063 3.8309375 1.8125 4.75 C1.96332031 5.63171875 2.11414063 6.5134375 2.26953125 7.421875 C3.05414248 10.1910911 4.14595359 11.8259401 6 14 C5.67 14.66 5.34 15.32 5 16 C0.88057164 12.09182438 -0.92466335 10.18476278 -1.125 4.375 C-1 1 -1 1 0 0 Z " fill="#BD9E6D" transform="translate(29,21)"/>
<path d="M0 0 C10.56 0 21.12 0 32 0 C32 0.33 32 0.66 32 1 C21.44 1 10.88 1 0 1 C0 0.67 0 0.34 0 0 Z " fill="#8B8B83" transform="translate(41,5)"/>
<path d="M0 0 C2.64 0 5.28 0 8 0 C8 1.65 8 3.3 8 5 C4.37673261 6.2077558 3.35853631 5.54311128 0 4 C0 2.68 0 1.36 0 0 Z " fill="#AB8460" transform="translate(58,38)"/>
<path d="M0 0 C1.99231949 1.38596139 2.89083473 2.54374514 3.45703125 4.91015625 C4.22476819 10.55046362 4.22476819 10.55046362 3 13 C2.34 13 1.68 13 1 13 C0.93941406 12.38511719 0.87882812 11.77023438 0.81640625 11.13671875 C0.73261719 10.32847656 0.64882813 9.52023438 0.5625 8.6875 C0.48128906 7.88699219 0.40007813 7.08648437 0.31640625 6.26171875 C0.04734307 3.83912821 0.04734307 3.83912821 -1 1 C-0.67 0.67 -0.34 0.34 0 0 Z " fill="#B97558" transform="translate(62,63)"/>
<path d="M0 0 C0.66 0.33 1.32 0.66 2 1 C1.67 1.99 1.34 2.98 1 4 C1 4.99 1 5.98 1 7 C-0.65 7.33 -2.3 7.66 -4 8 C-4 6.02 -4 4.04 -4 2 C-2.125 0.9375 -2.125 0.9375 0 0 Z " fill="#BD5D36" transform="translate(66,85)"/>
<path d="M0 0 C0.66 0.33 1.32 0.66 2 1 C2 4.3 2 7.6 2 11 C1.34 11 0.68 11 0 11 C-0.19406478 9.35492782 -0.38007935 7.70890406 -0.5625 6.0625 C-0.66691406 5.14597656 -0.77132812 4.22945313 -0.87890625 3.28515625 C-0.91886719 2.53105469 -0.95882812 1.77695313 -1 1 C-0.67 0.67 -0.34 0.34 0 0 Z " fill="#AD7353" transform="translate(34,63)"/>
<path d="M0 0 C0.66 0.99 1.32 1.98 2 3 C1.01 3.99 0.02 4.98 -1 6 C-1 3 -1 3 0 0 Z M-3 5 C-1.68 6.32 -0.36 7.64 1 9 C-2 10 -2 10 -5 9 C-4.34 7.68 -3.68 6.36 -3 5 Z " fill="#B66F3F" transform="translate(66,74)"/>
<path d="M0 0 C1.32 0.33 2.64 0.66 4 1 C3.67 2.65 3.34 4.3 3 6 C2.01 6.33 1.02 6.66 0 7 C0 4.69 0 2.38 0 0 Z " fill="#C6B080" transform="translate(40,17)"/>
<path d="M0 0 C0.33 0 0.66 0 1 0 C1 6.6 1 13.2 1 20 C0.67 20 0.34 20 0 20 C0 13.4 0 6.8 0 0 Z " fill="#000000" transform="translate(75,8)"/>
<path d="M0 0 C0.99 0.33 1.98 0.66 3 1 C3 1.33 3 1.66 3 2 C4.65 2.33 6.3 2.66 8 3 C7.01 4.485 7.01 4.485 6 6 C3.5625 5.25 3.5625 5.25 1 4 C0.1875 1.875 0.1875 1.875 0 0 Z " fill="#A25E47" transform="translate(42,79)"/>
<path d="M0 0 C0.33 0 0.66 0 1 0 C1 6.27 1 12.54 1 19 C0.67 19 0.34 19 0 19 C0 12.73 0 6.46 0 0 Z " fill="#C9783C" transform="translate(77,60)"/>
<path d="M0 0 C0.66 0 1.32 0 2 0 C2.66 2.64 3.32 5.28 4 8 C3.01 8 2.02 8 1 8 C0.67 5.36 0.34 2.72 0 0 Z " fill="#B86F55" transform="translate(23,69)"/>
<path d="M0 0 C2.475 0.99 2.475 0.99 5 2 C2 4 2 4 -0.6875 3.625 C-1.450625 3.41875 -2.21375 3.2125 -3 3 C-2.01 2.01 -1.02 1.02 0 0 Z " fill="#C09D70" transform="translate(46,40)"/>
<path d="M0 0 C4.95 0 9.9 0 15 0 C15 0.33 15 0.66 15 1 C10.05 1 5.1 1 0 1 C0 0.67 0 0.34 0 0 Z " fill="#A6684E" transform="translate(44,94)"/>
<path d="M0 0 C0.33 0 0.66 0 1 0 C1 4.62 1 9.24 1 14 C0.67 14 0.34 14 0 14 C0 9.38 0 4.76 0 0 Z " fill="#CE5442" transform="translate(20,56)"/>
<path d="M0 0 C3.96 0 7.92 0 12 0 C12 0.33 12 0.66 12 1 C8.04 1 4.08 1 0 1 C0 0.67 0 0.34 0 0 Z " fill="#C7BB5F" transform="translate(47,14)"/>
<path d="M0 0 C3.63 0 7.26 0 11 0 C11 0.33 11 0.66 11 1 C7.37 1 3.74 1 0 1 C0 0.67 0 0.34 0 0 Z " fill="#DC4545" transform="translate(48,86)"/>
<path d="M0 0 C0.33 0 0.66 0 1 0 C1 2.97 1 5.94 1 9 C0.67 9 0.34 9 0 9 C0 6.03 0 3.06 0 0 Z " fill="#AEAE5E" transform="translate(26,20)"/>
<path d="M0 0 C2.97 0 5.94 0 9 0 C9 0.33 9 0.66 9 1 C6.03 1 3.06 1 0 1 C0 0.67 0 0.34 0 0 Z " fill="#C1AE67" transform="translate(48,19)"/>
<path d="M0 0 C0.33 0 0.66 0 1 0 C1 1.98 1 3.96 1 6 C-0.0625 4.125 -0.0625 4.125 -1 2 C-0.67 1.34 -0.34 0.68 0 0 Z " fill="#E7C76F" transform="translate(33,27)"/>
<path d="M0 0 C1.32 1.32 2.64 2.64 4 4 C2.68 3.34 1.36 2.68 0 2 C0 1.34 0 0.68 0 0 Z " fill="#8B4E2A" transform="translate(28,84)"/>
<path d="M0 0 C0.33 0 0.66 0 1 0 C1 2.31 1 4.62 1 7 C0.67 7 0.34 7 0 7 C0 4.69 0 2.38 0 0 Z " fill="#AA2418" transform="translate(37,67)"/>
<path d="M0 0 C1.32 1.32 2.64 2.64 4 4 C2.68 3.34 1.36 2.68 0 2 C0 1.34 0 0.68 0 0 Z " fill="#9D4818" transform="translate(30,34)"/>
<path d="M0 0 C0.33 0 0.66 0 1 0 C1 2.31 1 4.62 1 7 C0.67 7 0.34 7 0 7 C0 4.69 0 2.38 0 0 Z " fill="#BCA979" transform="translate(31,21)"/>
<path d="M0 0 C0.33 0 0.66 0 1 0 C1 1.65 1 3.3 1 5 C0.34 4.01 -0.32 3.02 -1 2 C-0.67 1.34 -0.34 0.68 0 0 Z " fill="#DF6A6A" transform="translate(74,51)"/>
<path d="M0 0 C1.65 0 3.3 0 5 0 C5 0.33 5 0.66 5 1 C3.35 1 1.7 1 0 1 C0 0.67 0 0.34 0 0 Z " fill="#AA5522" transform="translate(45,80)"/>
<path d="M0 0 C0.33 0 0.66 0 1 0 C1 1.65 1 3.3 1 5 C0.67 5 0.34 5 0 5 C0 3.35 0 1.7 0 0 Z " fill="#FF9900" transform="translate(67,69)"/>
<path d="M0 0 C0.33 0 0.66 0 1 0 C1 1.65 1 3.3 1 5 C0.67 5 0.34 5 0 5 C0 3.35 0 1.7 0 0 Z " fill="#CB7F65" transform="translate(71,65)"/>
<path d="M0 0 C0.33 0 0.66 0 1 0 C1 1.65 1 3.3 1 5 C0.67 5 0.34 5 0 5 C0 3.35 0 1.7 0 0 Z " fill="#AE5443" transform="translate(79,50)"/>
<path d="M0 0 C0.33 0 0.66 0 1 0 C1 1.65 1 3.3 1 5 C0.67 5 0.34 5 0 5 C0 3.35 0 1.7 0 0 Z " fill="#CCAA77" transform="translate(43,23)"/>
<path d="M0 0 C4 1 4 1 4 1 Z " fill="#8F5F0F" transform="translate(44,85)"/>
<path d="M0 0 C1 4 1 4 1 4 Z " fill="#7A6A44" transform="translate(32,71)"/>
<path d="M0 0 C1 4 1 4 1 4 Z " fill="#D97464" transform="translate(21,70)"/>
<path d="M0 0 C1 4 1 4 1 4 Z " fill="#EF7F2F" transform="translate(26,69)"/>
<path d="M0 0 C4 1 4 1 4 1 Z " fill="#D99A74" transform="translate(59,15)"/>
<path d="M0 0 C3 1 3 1 3 1 Z " fill="#713838" transform="translate(41,93)"/>
<path d="M0 0 C3 1 3 1 3 1 Z " fill="#783131" transform="translate(59,85)"/>
<path d="" fill="#8D7171" transform="translate(0,0)"/>
<path d="" fill="#8D7171" transform="translate(0,0)"/>
<path d="" fill="#992211" transform="translate(0,0)"/>
<path d="" fill="#E29B46" transform="translate(0,0)"/>
<path d="" fill="#E97F15" transform="translate(0,0)"/>
<path d="" fill="#E26346" transform="translate(0,0)"/>
<path d="M0 0 C3 1 3 1 3 1 Z " fill="#8D6346" transform="translate(46,59)"/>
<path d="M0 0 C3 1 3 1 3 1 Z " fill="#8D6346" transform="translate(44,53)"/>
<path d="M0 0 C0.66 0 1.32 0 2 0 C1.67 0.66 1.34 1.32 1 2 C0.67 1.34 0.34 0.68 0 0 Z " fill="#AAAA55" transform="translate(34,38)"/>
<path d="M0 0 C3 1 3 1 3 1 Z " fill="#E25555" transform="translate(58,36)"/>
<path d="M0 0 C3 1 3 1 3 1 Z " fill="#CD6363" transform="translate(55,35)"/>
<path d="" fill="#8D8D71" transform="translate(0,0)"/>
<path d="" fill="#945454" transform="translate(0,0)"/>
<path d="" fill="#B86346" transform="translate(0,0)"/>
<path d="M0 0 C3 1 3 1 3 1 Z " fill="#6AA954" transform="translate(63,16)"/>
<path d="M0 0 C2 1 2 1 2 1 Z " fill="#D46A6A" transform="translate(60,93)"/>
<path d="M0 0 C2 1 2 1 2 1 Z " fill="#D46A6A" transform="translate(39,92)"/>
<path d="M0 0 C2 1 2 1 2 1 Z " fill="#FF7F7F" transform="translate(62,84)"/>
<path d="M0 0 C2 1 2 1 2 1 Z " fill="#D46A6A" transform="translate(42,84)"/>
<path d="" fill="#D42A2A" transform="translate(0,0)"/>
<path d="" fill="#552A2A" transform="translate(0,0)"/>
<path d="" fill="#D4552A" transform="translate(0,0)"/>
<path d="" fill="#552A2A" transform="translate(0,0)"/>
<path d="" fill="#DF3F1F" transform="translate(0,0)"/>
<path d="" fill="#BFBFBF" transform="translate(0,0)"/>
<path d="" fill="#DF3F1F" transform="translate(0,0)"/>
<path d="" fill="#9F7F5F" transform="translate(0,0)"/>
<path d="" fill="#FFBF3F" transform="translate(0,0)"/>
<path d="" fill="#664C33" transform="translate(0,0)"/>
<path d="" fill="#7F552A" transform="translate(0,0)"/>
<path d="" fill="#000000" transform="translate(0,0)"/>
<path d="" fill="#D42A2A" transform="translate(0,0)"/>
<path d="" fill="#D4D4AA" transform="translate(0,0)"/>
<path d="M0 0 C2 1 2 1 2 1 Z " fill="#D46A6A" transform="translate(44,58)"/>
<path d="M0 0 C2 1 2 1 2 1 Z " fill="#94946A" transform="translate(41,57)"/>
<path d="M0 0 C2 1 2 1 2 1 Z " fill="#94946A" transform="translate(52,56)"/>
<path d="M0 0 C2 1 2 1 2 1 Z " fill="#946A6A" transform="translate(39,56)"/>
<path d="M0 0 C2 1 2 1 2 1 Z " fill="#D46A6A" transform="translate(47,54)"/>
<path d="" fill="#FFD42A" transform="translate(0,0)"/>
<path d="M0 0 C2 1 2 1 2 1 Z " fill="#FFBFBF" transform="translate(48,50)"/>
<path d="" fill="#FF7F7F" transform="translate(0,0)"/>
<path d="" fill="#BFBF3F" transform="translate(0,0)"/>
<path d="M0 0 C2 1 2 1 2 1 Z " fill="#BFBF7F" transform="translate(59,44)"/>
<path d="M0 0 C2 1 2 1 2 1 Z " fill="#D46A6A" transform="translate(57,43)"/>
<path d="" fill="#94946A" transform="translate(0,0)"/>
<path d="" fill="#D4D4AA" transform="translate(0,0)"/>
<path d="M0 0 C2 1 2 1 2 1 Z " fill="#BF7F7F" transform="translate(55,42)"/>
<path d="M0 0 C2 1 2 1 2 1 Z " fill="#94946A" transform="translate(50,40)"/>
<path d="M0 0 C2 1 2 1 2 1 Z " fill="#D4D46A" transform="translate(52,39)"/>
<path d="M0 0 C2 1 2 1 2 1 Z " fill="#D4D46A" transform="translate(61,37)"/>
<path d="M0 0 C2 1 2 1 2 1 Z " fill="#94946A" transform="translate(43,37)"/>
<path d="M0 0 C2 1 2 1 2 1 Z " fill="#D4D46A" transform="translate(41,36)"/>
<path d="" fill="#DFBF1F" transform="translate(0,0)"/>
<path d="" fill="#DFBF3F" transform="translate(0,0)"/>
<path d="" fill="#D4552A" transform="translate(0,0)"/>
<path d="" fill="#7F5555" transform="translate(0,0)"/>
<path d="" fill="#949494" transform="translate(0,0)"/>
<path d="" fill="#7F7F7F" transform="translate(0,0)"/>
<path d="" fill="#FFBF3F" transform="translate(0,0)"/>
<path d="M0 0 C2 1 2 1 2 1 Z " fill="#94946A" transform="translate(42,16)"/>
<path d="M0 0 C2 1 2 1 2 1 Z " fill="#D4946A" transform="translate(44,15)"/>
<path d="" fill="#FFFF3F" transform="translate(0,0)"/>
<path d="M0 0 C2 1 2 1 2 1 Z " fill="#FFD494" transform="translate(39,6)"/>
<path d="" fill="#AA5555" transform="translate(0,0)"/>
<path d="" fill="#AA5555" transform="translate(0,0)"/>
<path d="" fill="#AA5555" transform="translate(0,0)"/>
<path d="" fill="#FF0000" transform="translate(0,0)"/>
<path d="" fill="#BF7F3F" transform="translate(0,0)"/>
<path d="" fill="#BF7F3F" transform="translate(0,0)"/>
<path d="" fill="#7F7F7F" transform="translate(0,0)"/>
<path d="" fill="#AA5555" transform="translate(0,0)"/>
<path d="" fill="#AA5555" transform="translate(0,0)"/>
<path d="" fill="#AA5555" transform="translate(0,0)"/>
<path d="" fill="#FF7F7F" transform="translate(0,0)"/>
<path d="" fill="#7F7F7F" transform="translate(0,0)"/>
<path d="" fill="#7F7F7F" transform="translate(0,0)"/>
<path d="" fill="#7F7F7F" transform="translate(0,0)"/>
<path d="" fill="#BF3F3F" transform="translate(0,0)"/>
<path d="" fill="#AA5555" transform="translate(0,0)"/>
<path d="" fill="#7F7F7F" transform="translate(0,0)"/>
<path d="" fill="#AA5555" transform="translate(0,0)"/>
<path d="" fill="#AA5555" transform="translate(0,0)"/>
<path d="" fill="#7F7F7F" transform="translate(0,0)"/>
<path d="" fill="#FF0000" transform="translate(0,0)"/>
<path d="" fill="#996633" transform="translate(0,0)"/>
<path d="" fill="#7F7F7F" transform="translate(0,0)"/>
<path d="" fill="#FF0000" transform="translate(0,0)"/>
<path d="" fill="#BF7F3F" transform="translate(0,0)"/>
<path d="" fill="#FFFFFF" transform="translate(0,0)"/>
<path d="" fill="#996666" transform="translate(0,0)"/>
<path d="" fill="#B66D48" transform="translate(0,0)"/>
<path d="" fill="#BF7F3F" transform="translate(0,0)"/>
<path d="" fill="#FF0000" transform="translate(0,0)"/>
<path d="" fill="#AA5555" transform="translate(0,0)"/>
<path d="" fill="#FF5555" transform="translate(0,0)"/>
<path d="" fill="#FFAA55" transform="translate(0,0)"/>
<path d="" fill="#FF7F7F" transform="translate(0,0)"/>
<path d="" fill="#FFAA55" transform="translate(0,0)"/>
<path d="" fill="#FF7F7F" transform="translate(0,0)"/>
<path d="" fill="#7F7F7F" transform="translate(0,0)"/>
<path d="" fill="#7F7F7F" transform="translate(0,0)"/>
<path d="" fill="#AA5555" transform="translate(0,0)"/>
<path d="" fill="#7F7F7F" transform="translate(0,0)"/>
<path d="" fill="#FF7F7F" transform="translate(0,0)"/>
<path d="" fill="#999966" transform="translate(0,0)"/>
<path d="" fill="#CC6666" transform="translate(0,0)"/>
<path d="" fill="#996666" transform="translate(0,0)"/>
<path d="" fill="#FF7F7F" transform="translate(0,0)"/>
<path d="" fill="#7F7F00" transform="translate(0,0)"/>
<path d="" fill="#AAAA55" transform="translate(0,0)"/>
<path d="" fill="#FF7F7F" transform="translate(0,0)"/>
<path d="" fill="#AAAA55" transform="translate(0,0)"/>
<path d="" fill="#AAAA55" transform="translate(0,0)"/>
<path d="" fill="#FF7F7F" transform="translate(0,0)"/>
<path d="" fill="#CC9966" transform="translate(0,0)"/>
<path d="" fill="#FF7F7F" transform="translate(0,0)"/>
<path d="" fill="#FFFF00" transform="translate(0,0)"/>
<path d="" fill="#000000" transform="translate(0,0)"/>
<path d="" fill="#7F7F7F" transform="translate(0,0)"/>
<path d="" fill="#7F7F7F" transform="translate(0,0)"/>
<path d="" fill="#7F7F7F" transform="translate(0,0)"/>
<path d="" fill="#AAAA55" transform="translate(0,0)"/>
<path d="" fill="#FFFFFF" transform="translate(0,0)"/>
<path d="" fill="#AAAA55" transform="translate(0,0)"/>
<path d="" fill="#CC9966" transform="translate(0,0)"/>
<path d="" fill="#FF7F7F" transform="translate(0,0)"/>
<path d="" fill="#AAAA55" transform="translate(0,0)"/>
<path d="" fill="#AAAA55" transform="translate(0,0)"/>
<path d="" fill="#7F7F7F" transform="translate(0,0)"/>
<path d="" fill="#BFBF7F" transform="translate(0,0)"/>
<path d="" fill="#FFFF7F" transform="translate(0,0)"/>
<path d="" fill="#AAAA55" transform="translate(0,0)"/>
<path d="" fill="#AAAA55" transform="translate(0,0)"/>
<path d="" fill="#AAAAAA" transform="translate(0,0)"/>
<path d="" fill="#BFBF7F" transform="translate(0,0)"/>
<path d="" fill="#BFBF7F" transform="translate(0,0)"/>
<path d="" fill="#AAAAAA" transform="translate(0,0)"/>
<path d="" fill="#AAAA55" transform="translate(0,0)"/>
</svg>
